<svg width="85" height="85" viewBox="0 0 85 85" fill="none" xmlns="http://www.w3.org/2000/svg">
<circle cx="42.5" cy="42.5" r="42.5" fill="white"/>
<g clip-path="url(#clip0_100_15)">
<path d="M53.2708 35.2952C53.2708 35.2952 55.9511 37.9756 55.9511 42.4429C55.9511 46.9101 53.2708 49.5905 53.2708 49.5905M58.6315 29.9345C58.6315 29.9345 63.0988 34.4018 63.0988 42.4429C63.0988 50.4839 58.6315 54.9512 58.6315 54.9512M33.6148 35.2952C33.6148 35.2952 30.9345 37.9756 30.9345 42.4429C30.9345 46.9101 33.6148 49.5905 33.6148 49.5905M28.2541 29.9345C28.2541 29.9345 23.7869 34.4018 23.7869 42.4429C23.7869 50.4839 28.2541 54.9512 28.2541 54.9512" stroke="#104767" stroke-width="4.05803" stroke-linecap="round" stroke-linejoin="round"/>
<path d="M43.4429 47.8036C44.8646 47.8036 46.2281 47.2388 47.2335 46.2334C48.2388 45.2281 48.8036 43.8646 48.8036 42.4429C48.8036 41.0211 48.2388 39.6576 47.2335 38.6523C46.2281 37.6469 44.8646 37.0821 43.4429 37.0821C42.0211 37.0821 40.6576 37.6469 39.6523 38.6523C38.6469 39.6576 38.0822 41.0211 38.0822 42.4429C38.0822 43.8646 38.6469 45.2281 39.6523 46.2334C40.6576 47.2388 42.0211 47.8036 43.4429 47.8036Z" fill="#104767"/>
</g>
<defs>
<clipPath id="clip0_100_15">
<rect width="42.8857" height="42.8857" fill="white" transform="translate(22 21)"/>
</clipPath>
</defs>
</svg>
