<svg width="125" height="25" viewBox="0 0 125 25" fill="none" xmlns="http://www.w3.org/2000/svg">
<path d="M0.330914 24V0.899998H15.2469V4.299H4.55491V10.767H13.2009V14.1H4.55491V24H0.330914ZM20.6847 5.091C19.9147 5.091 19.2767 4.86 18.7707 4.398C18.2867 3.936 18.0447 3.353 18.0447 2.649C18.0447 1.945 18.2867 1.373 18.7707 0.932998C19.2767 0.470999 19.9147 0.239999 20.6847 0.239999C21.4547 0.239999 22.0817 0.470999 22.5657 0.932998C23.0717 1.373 23.3247 1.945 23.3247 2.649C23.3247 3.353 23.0717 3.936 22.5657 4.398C22.0817 4.86 21.4547 5.091 20.6847 5.091ZM18.5727 24V7.632H22.7967V24H18.5727ZM27.2055 24V7.632H30.9345L31.2645 10.404C31.7705 9.436 32.4965 8.666 33.4425 8.094C34.4105 7.522 35.5435 7.236 36.8415 7.236C38.8655 7.236 40.4385 7.874 41.5605 9.15C42.6825 10.426 43.2435 12.296 43.2435 14.76V24H39.0195V15.156C39.0195 13.748 38.7335 12.67 38.1615 11.922C37.5895 11.174 36.6985 10.8 35.4885 10.8C34.3005 10.8 33.3215 11.218 32.5515 12.054C31.8035 12.89 31.4295 14.056 31.4295 15.552V24H27.2055ZM54.5757 24C52.8597 24 51.4847 23.582 50.4507 22.746C49.4167 21.91 48.8997 20.425 48.8997 18.291V11.163H46.0947V7.632H48.8997L49.3947 3.243H53.1237V7.632H57.5457V11.163H53.1237V18.324C53.1237 19.116 53.2887 19.666 53.6187 19.974C53.9707 20.26 54.5647 20.403 55.4007 20.403H57.4467V24H54.5757ZM68.7064 24.396C67.0564 24.396 65.5934 24.044 64.3174 23.34C63.0414 22.636 62.0404 21.646 61.3144 20.37C60.5884 19.094 60.2254 17.62 60.2254 15.948C60.2254 14.254 60.5774 12.747 61.2814 11.427C62.0074 10.107 62.9974 9.084 64.2514 8.358C65.5274 7.61 67.0234 7.236 68.7394 7.236C70.3454 7.236 71.7644 7.588 72.9964 8.292C74.2284 8.996 75.1854 9.964 75.8674 11.196C76.5714 12.406 76.9234 13.759 76.9234 15.255C76.9234 15.497 76.9124 15.75 76.8904 16.014C76.8904 16.278 76.8794 16.553 76.8574 16.839H64.4164C64.5044 18.115 64.9444 19.116 65.7364 19.842C66.5504 20.568 67.5294 20.931 68.6734 20.931C69.5314 20.931 70.2464 20.744 70.8184 20.37C71.4124 19.974 71.8524 19.468 72.1384 18.852H76.4284C76.1204 19.886 75.6034 20.832 74.8774 21.69C74.1734 22.526 73.2934 23.186 72.2374 23.67C71.2034 24.154 70.0264 24.396 68.7064 24.396ZM68.7394 10.668C67.7054 10.668 66.7924 10.965 66.0004 11.559C65.2084 12.131 64.7024 13.011 64.4824 14.199H72.6334C72.5674 13.121 72.1714 12.263 71.4454 11.625C70.7194 10.987 69.8174 10.668 68.7394 10.668ZM88.4951 24.396C86.8231 24.396 85.3491 24.033 84.0731 23.307C82.7971 22.581 81.7851 21.569 81.0371 20.271C80.3111 18.973 79.9481 17.488 79.9481 15.816C79.9481 14.144 80.3111 12.659 81.0371 11.361C81.7851 10.063 82.7971 9.051 84.0731 8.325C85.3491 7.599 86.8231 7.236 88.4951 7.236C90.5851 7.236 92.3451 7.786 93.7751 8.886C95.2051 9.964 96.1181 11.46 96.5141 13.374H92.0591C91.8391 12.582 91.3991 11.966 90.7391 11.526C90.1011 11.064 89.3421 10.833 88.4621 10.833C87.2961 10.833 86.3061 11.273 85.4921 12.153C84.6781 13.033 84.2711 14.254 84.2711 15.816C84.2711 17.378 84.6781 18.599 85.4921 19.479C86.3061 20.359 87.2961 20.799 88.4621 20.799C89.3421 20.799 90.1011 20.579 90.7391 20.139C91.3991 19.699 91.8391 19.072 92.0591 18.258H96.5141C96.1181 20.106 95.2051 21.591 93.7751 22.713C92.3451 23.835 90.5851 24.396 88.4951 24.396ZM100.263 24V0.239999H104.487V10.14C105.037 9.238 105.774 8.534 106.698 8.028C107.644 7.5 108.722 7.236 109.932 7.236C111.956 7.236 113.518 7.874 114.618 9.15C115.74 10.426 116.301 12.296 116.301 14.76V24H112.11V15.156C112.11 13.748 111.824 12.67 111.252 11.922C110.702 11.174 109.822 10.8 108.612 10.8C107.424 10.8 106.434 11.218 105.642 12.054C104.872 12.89 104.487 14.056 104.487 15.552V24H100.263Z" fill="#FEFEFE"/>
<path d="M122.155 24.231C121.385 24.231 120.747 23.989 120.241 23.505C119.757 23.021 119.515 22.438 119.515 21.756C119.515 21.052 119.757 20.458 120.241 19.974C120.747 19.49 121.385 19.248 122.155 19.248C122.925 19.248 123.552 19.49 124.036 19.974C124.542 20.458 124.795 21.052 124.795 21.756C124.795 22.438 124.542 23.021 124.036 23.505C123.552 23.989 122.925 24.231 122.155 24.231Z" fill="#D23B3B"/>
</svg>
