<svg width="85" height="85" viewBox="0 0 85 85" fill="none" xmlns="http://www.w3.org/2000/svg">
<circle cx="42.5" cy="42.5" r="42.5" fill="white"/>
<path fill-rule="evenodd" clip-rule="evenodd" d="M30.7619 25.3292H24.4207V63.516L30.7619 63.516V25.3292ZM24.4207 23.2738C23.0049 23.2738 21.8572 24.194 21.8572 25.3292V63.516C21.8572 64.6512 23.0049 65.5714 24.4207 65.5714H30.7619C32.1777 65.5714 33.3254 64.6512 33.3254 63.516V25.3292C33.3254 24.194 32.1777 23.2738 30.7619 23.2738H24.4207Z" fill="#0D4566"/>
<path fill-rule="evenodd" clip-rule="evenodd" d="M45.9267 25.2794L40.2196 25.2794V48.1849H45.9267V25.2794ZM40.2196 23.2738C38.9454 23.2738 37.9125 24.1717 37.9125 25.2794V48.1849C37.9125 49.2926 38.9454 50.1905 40.2196 50.1905H45.9267C47.2009 50.1905 48.2339 49.2926 48.2339 48.1849V25.2794C48.2339 24.1717 47.2009 23.2738 45.9267 23.2738H40.2196Z" fill="#0D4566"/>
<path fill-rule="evenodd" clip-rule="evenodd" d="M60.8357 25.3152L55.1285 25.3152V57.7622H60.8357V25.3152ZM55.1285 23.2738C53.8543 23.2738 52.8214 24.1878 52.8214 25.3152V57.7622C52.8214 58.8896 53.8544 59.8036 55.1285 59.8036H60.8357C62.1099 59.8036 63.1428 58.8896 63.1428 57.7622V25.3152C63.1428 24.1878 62.1099 23.2738 60.8357 23.2738H55.1285Z" fill="#0D4566"/>
<path fill-rule="evenodd" clip-rule="evenodd" d="M21.8572 20.3899C21.8572 19.859 22.3706 19.4286 23.004 19.4286H61.9959C62.6292 19.4286 63.1427 19.859 63.1427 20.3899C63.1427 20.9208 62.6292 21.3512 61.9959 21.3512H23.004C22.3706 21.3512 21.8572 20.9208 21.8572 20.3899Z" fill="#0D4566"/>
</svg>
