<svg width="85" height="85" viewBox="0 0 85 85" fill="none" xmlns="http://www.w3.org/2000/svg">
<circle cx="42.5" cy="42.5" r="42.5" fill="white"/>
<path d="M33.25 34.3333H51.75M33.25 43.6667H47.125M42.5 60L35.5625 53H30.9375C29.0976 53 27.333 52.2625 26.0319 50.9498C24.7309 49.637 24 47.8565 24 46V32C24 30.1435 24.7309 28.363 26.0319 27.0503C27.333 25.7375 29.0976 25 30.9375 25H54.0625C55.9024 25 57.667 25.7375 58.9681 27.0503C60.2691 28.363 61 30.1435 61 32V46C61 47.8565 60.2691 49.637 58.9681 50.9498C57.667 52.2625 55.9024 53 54.0625 53H49.4375L42.5 60Z" stroke="#0E4666" stroke-width="4.16077" stroke-linecap="round" stroke-linejoin="round"/>
</svg>
