<svg width="85" height="85" viewBox="0 0 85 85" fill="none" xmlns="http://www.w3.org/2000/svg">
<circle cx="42.5" cy="42.5" r="42.5" fill="white"/>
<g clip-path="url(#clip0_100_17)">
<path fill-rule="evenodd" clip-rule="evenodd" d="M27.6312 27.7785C27.2399 27.7785 26.9276 28.0967 26.9276 28.4829V45.026C26.9276 45.4122 27.2399 45.7303 27.6312 45.7303H57.8702C58.2616 45.7303 58.5738 45.4122 58.5738 45.026V28.4829C58.5738 28.0967 58.2616 27.7785 57.8702 27.7785H27.6312ZM24.7429 28.4829C24.7429 26.8748 26.0389 25.5763 27.6312 25.5763H57.8702C59.4626 25.5763 60.7586 26.8748 60.7586 28.4829V45.026C60.7586 46.634 59.4626 47.9325 57.8702 47.9325H27.6312C26.0389 47.9325 24.7429 46.634 24.7429 45.026V28.4829Z" fill="#0F4767"/>
<path fill-rule="evenodd" clip-rule="evenodd" d="M33.8991 45.805C34.4615 46.0252 34.7403 46.6632 34.5219 47.2301L29.1507 61.1699C28.9323 61.7368 28.2993 62.0179 27.737 61.7977C27.1746 61.5775 26.8958 60.9395 27.1142 60.3726L32.4854 46.4328C32.7038 45.8659 33.3367 45.5849 33.8991 45.805Z" fill="#0F4767"/>
<path fill-rule="evenodd" clip-rule="evenodd" d="M43.1463 21.8133C43.7087 22.0335 43.9875 22.6715 43.7691 23.2384L42.2906 27.076C42.0722 27.6429 41.4393 27.924 40.8769 27.7038C40.3145 27.4837 40.0357 26.8457 40.2541 26.2788L41.7326 22.4411C41.951 21.8743 42.584 21.5932 43.1463 21.8133Z" fill="#0F4767"/>
<path fill-rule="evenodd" clip-rule="evenodd" d="M51.5377 45.8042C52.1006 45.5852 52.7329 45.8676 52.9501 46.435L58.4591 60.8241C58.6763 61.3915 58.3962 62.0289 57.8333 62.2478C57.2705 62.4668 56.6382 62.1844 56.4209 61.617L50.9119 47.2279C50.6947 46.6605 50.9749 46.0231 51.5377 45.8042Z" fill="#0F4767"/>
<path fill-rule="evenodd" clip-rule="evenodd" d="M42.3573 21.8126C42.9201 21.5935 43.5525 21.8758 43.7699 22.4431L45.2401 26.2807C45.4574 26.848 45.1773 27.4855 44.6145 27.7046C44.0518 27.9237 43.4193 27.6414 43.202 27.0741L41.7318 23.2364C41.5145 22.6691 41.7946 22.0316 42.3573 21.8126Z" fill="#0F4767"/>
<path fill-rule="evenodd" clip-rule="evenodd" d="M42.7509 45.7303C43.3542 45.7303 43.8433 46.2233 43.8433 46.8314V61.3507C43.8433 61.9589 43.3542 62.4518 42.7509 62.4518C42.1476 62.4518 41.6586 61.9589 41.6586 61.3507V46.8314C41.6586 46.2233 42.1476 45.7303 42.7509 45.7303Z" fill="#0F4767"/>
<path fill-rule="evenodd" clip-rule="evenodd" d="M42.7509 21.7386C43.3542 21.7386 43.8433 22.2316 43.8433 22.8398V26.6774C43.8433 27.2855 43.3542 27.7785 42.7509 27.7785C42.1476 27.7785 41.6586 27.2855 41.6586 26.6774V22.8398C41.6586 22.2316 42.1476 21.7386 42.7509 21.7386Z" fill="#0F4767"/>
</g>
<defs>
<clipPath id="clip0_100_17">
<rect width="35.5016" height="40.1905" fill="white" transform="translate(25 22)"/>
</clipPath>
</defs>
</svg>
